<svg width="72" height="50" viewBox="0 0 72 50" fill="none" xmlns="http://www.w3.org/2000/svg">
<path d="M36 0.454559C19.6364 0.454559 5.56364 10.6 0 25C5.56364 39.4 19.6364 49.5455 36 49.5455C52.3636 49.5455 66.4364 39.4 72 25C66.4364 10.6 52.3636 0.454559 36 0.454559ZM36 41.3636C26.8364 41.3636 19.6364 34.1636 19.6364 25C19.6364 15.8364 26.8364 8.63638 36 8.63638C45.1636 8.63638 52.3636 15.8364 52.3636 25C52.3636 34.1636 45.1636 41.3636 36 41.3636ZM36 15.1818C30.4364 15.1818 26.1818 19.4364 26.1818 25C26.1818 30.5636 30.4364 34.8182 36 34.8182C41.5636 34.8182 45.8182 30.5636 45.8182 25C45.8182 19.4364 41.5636 15.1818 36 15.1818Z" fill="#9BD8A1"/>
</svg>
