<svg width="58" height="44" viewBox="0 0 58 44" fill="none" xmlns="http://www.w3.org/2000/svg">
<path d="M55.4765 24.4615C53.7947 22.357 51.6453 20.9929 49.0267 20.3685C49.8531 19.12 50.2651 17.7303 50.2651 16.1999C50.2651 14.065 49.5097 12.2426 47.9999 10.732C46.4897 9.22199 44.6672 8.46664 42.5324 8.46664C40.6191 8.46664 38.9478 9.091 37.5183 10.3397C36.3306 7.43959 34.4318 5.11367 31.8242 3.36185C29.2165 1.6095 26.3415 0.733429 23.1995 0.733429C18.9304 0.733429 15.2851 2.24422 12.2642 5.26507C9.24316 8.28518 7.73311 11.9307 7.73311 16.2002C7.73311 16.4619 7.75332 16.895 7.79352 17.4989C5.41724 18.6066 3.52438 20.268 2.11431 22.483C0.70477 24.6987 0 27.1148 0 29.7334C0 33.4593 1.32437 36.6456 3.97236 39.2938C6.62046 41.9428 9.80753 43.2666 13.5331 43.2666H46.4001C49.6017 43.2666 52.3354 42.1333 54.6013 39.8681C56.8669 37.6029 57.9999 34.8692 57.9999 31.6665C57.9996 28.9679 57.1585 26.5666 55.4765 24.4615ZM38.3645 25.6245L27.7612 36.2284C27.5802 36.409 27.3485 36.4999 27.0664 36.4999C26.7845 36.4999 26.5528 36.409 26.3716 36.2284L15.7386 25.5947C15.5573 25.4137 15.4668 25.182 15.4668 24.8999C15.4668 24.6382 15.5621 24.4115 15.7534 24.2203C15.9451 24.029 16.1712 23.9335 16.433 23.9335H23.1996V13.3004C23.1996 13.0386 23.2954 12.812 23.4866 12.6204C23.678 12.4294 23.9044 12.3338 24.1662 12.3338H29.9667C30.2289 12.3338 30.4544 12.4291 30.6468 12.6204C30.8376 12.812 30.9332 13.0386 30.9332 13.3004V23.9335H37.6998C37.9818 23.9335 38.2135 24.024 38.3943 24.205C38.5756 24.386 38.6653 24.6177 38.6653 24.8998C38.6653 25.1425 38.5654 25.3832 38.3645 25.6245Z" fill="#1264F5"/>
</svg>
