<svg width="105" height="83" viewBox="0 0 105 83" fill="none" xmlns="http://www.w3.org/2000/svg">
<path d="M81.6939 53.0935C80.9086 52.7801 80.2213 52.9176 79.6332 53.5054L75.866 57.2725C75.5133 57.6246 75.3356 58.0571 75.3356 58.5663V65.9832C75.3356 68.5735 74.4155 70.7894 72.5715 72.6344C70.7261 74.4784 68.5101 75.4005 65.9203 75.4005H16.9505C14.3608 75.4005 12.1437 74.4784 10.2993 72.6344C8.45484 70.7896 7.53315 68.5737 7.53315 65.9832V17.0147C7.53315 14.4249 8.45484 12.2079 10.2993 10.3633C12.1437 8.51931 14.3608 7.5972 16.9505 7.5972H65.9207C66.7836 7.5972 67.6668 7.71491 68.5691 7.95054C69.2768 8.18576 69.9033 8.02908 70.4521 7.47969L73.3353 4.59565C73.8066 4.12543 73.9822 3.55604 73.8651 2.88914C73.7474 2.26162 73.3938 1.81015 72.8053 1.53577C70.6861 0.556144 68.3912 0.064064 65.9193 0.064064H16.9505C12.2816 0.064064 8.28869 1.72192 4.97276 5.03764C1.65786 8.35377 0 12.3457 0 17.0152V65.9846C0 70.6533 1.65786 74.6458 4.97296 77.9615C8.28869 81.2781 12.2818 82.9359 16.9507 82.9359H65.9195C70.5881 82.9359 74.5807 81.2781 77.8964 77.9615C81.2129 74.6458 82.8708 70.6535 82.8708 65.9846V54.802C82.8706 53.9766 82.4774 53.4083 81.6939 53.0935Z" fill="#1264F5"/>
<path d="M37.668 50.918V67.8678H54.6195L94.1715 28.3161L77.2202 11.3654L37.668 50.918ZM52.264 62.2181L48.9677 62.2166V56.5679H43.3179V53.2728L50.1456 46.4451L59.0917 55.392L52.264 62.2181ZM78.1023 21.7826L57.5015 42.3827C56.8348 43.0509 56.1871 43.07 55.5593 42.4421C54.932 41.8142 54.9512 41.1669 55.6185 40.5004L76.2193 19.9C76.8858 19.2323 77.5321 19.2129 78.1615 19.8409C78.7908 20.4688 78.7682 21.1159 78.1023 21.7826Z" fill="#1264F5"/>
<path d="M103.353 11.1298L94.4065 2.1837C93.3082 1.08492 91.9748 0.53553 90.4045 0.53553C88.8347 0.53553 87.5007 1.08492 86.403 2.1837L80.9876 7.59781L97.9389 24.5493L103.353 19.1342C104.451 18.036 105 16.7016 105 15.132C105 13.5624 104.451 12.2286 103.353 11.1298Z" fill="#1264F5"/>
</svg>
