<svg width="68" height="60" viewBox="0 0 68 60" fill="none" xmlns="http://www.w3.org/2000/svg">
<path d="M33.4825 19.2306L43.2166 28.9647L43.263 28.4548C43.263 23.3405 39.1067 19.1842 33.9924 19.1842L33.4825 19.2306Z" fill="#D29696"/>
<path d="M33.9923 13.0039C42.5213 13.0039 49.4434 19.926 49.4434 28.455C49.4434 30.4481 49.0417 32.3486 48.3464 34.0945L57.3853 43.1334C62.0514 39.2397 65.7288 34.2028 68.0001 28.455C62.6387 14.889 49.4589 5.27841 33.9925 5.27841C29.6661 5.27841 25.5253 6.05092 21.678 7.44151L28.3529 14.1009C30.0987 13.4211 31.9991 13.0039 33.9923 13.0039Z" fill="#D29696"/>
<path d="M3.09016 4.58299L10.1358 11.6287L11.5419 13.0348C6.44308 17.0211 2.41036 22.3209 0 28.4548C5.34611 42.0208 18.5412 51.6314 33.9923 51.6314C38.7822 51.6314 43.3556 50.7043 47.5429 49.0201L48.8563 50.3335L57.8643 59.3569L61.8043 55.4323L7.03017 0.642975L3.09016 4.58299ZM20.1791 21.6564L24.9535 26.4308C24.8144 27.0952 24.7217 27.7595 24.7217 28.4548C24.7217 33.5692 28.878 37.7255 33.9923 37.7255C34.6876 37.7255 35.3521 37.6327 36.001 37.4937L40.7754 42.2681C38.7203 43.2878 36.4337 43.9059 33.9923 43.9059C25.4634 43.9059 18.5412 36.9838 18.5412 28.4548C18.5412 26.0136 19.1593 23.7268 20.1791 21.6564Z" fill="#D29696"/>
</svg>
