<svg width="61" height="45" viewBox="0 0 61 45" fill="none" xmlns="http://www.w3.org/2000/svg">
<path d="M58.346 25.0888C56.5771 22.8754 54.3166 21.4408 51.5626 20.7841C52.4317 19.471 52.865 18.0095 52.865 16.3998C52.865 14.1546 52.0706 12.2379 50.4827 10.6492C48.8944 9.06104 46.9776 8.26663 44.7324 8.26663C42.7201 8.26663 40.9624 8.92328 39.4589 10.2366C38.2098 7.18645 36.2128 4.74022 33.4702 2.89779C30.7277 1.05481 27.704 0.133423 24.3995 0.133423C19.9095 0.133423 16.0757 1.72236 12.8986 4.89946C9.72126 8.07579 8.1331 11.9099 8.1331 16.4002C8.1331 16.6755 8.15435 17.1309 8.19663 17.7661C5.69744 18.9311 3.70667 20.6784 2.22367 23.008C0.741224 25.3383 0 27.8794 0 30.6334C0 34.552 1.39287 37.9031 4.17783 40.6883C6.96289 43.4744 10.3148 44.8666 14.2331 44.8666H48.8001C52.1673 44.8666 55.0424 43.6747 57.4255 41.2923C59.8083 38.91 60.9999 36.0349 60.9999 32.6665C60.9996 29.8283 60.115 27.3028 58.346 25.0888ZM40.3638 24.2315C40.1621 24.4322 39.9244 24.5327 39.6494 24.5327H32.5328V35.7164C32.5328 35.9913 32.4323 36.2297 32.2312 36.4308C32.0294 36.6325 31.7917 36.7325 31.5167 36.7325H25.4158C25.1405 36.7325 24.9023 36.6326 24.7011 36.4308C24.5003 36.2297 24.3993 35.9913 24.3993 35.7164V24.5327H17.2826C16.9864 24.5327 16.7426 24.4376 16.5523 24.2475C16.3617 24.0568 16.2665 23.8131 16.2665 23.5169C16.2665 23.2625 16.3722 23.0081 16.5839 22.754L27.7354 11.6029C27.926 11.4121 28.1697 11.3169 28.4662 11.3169C28.7628 11.3169 29.0065 11.4121 29.1969 11.6029L40.3803 22.7858C40.571 22.9763 40.6654 23.2198 40.6654 23.517C40.6653 23.7917 40.5648 24.0308 40.3638 24.2315Z" fill="#1264F5"/>
</svg>
