<svg width="55" height="43" viewBox="0 0 55 43" fill="none" xmlns="http://www.w3.org/2000/svg">
<path d="M54.0065 6.24189L49.1808 1.41617C48.5191 0.753986 47.7143 0.422768 46.7684 0.422768C45.8216 0.422768 45.0168 0.753986 44.3552 1.41617L21.0774 24.7291L10.6451 14.2612C9.98266 13.5988 9.17841 13.2679 8.23248 13.2679C7.28593 13.2679 6.48169 13.5988 5.81925 14.2612L0.99353 19.0871C0.331094 19.7494 0 20.5539 0 21.5003C0 22.446 0.331094 23.2512 0.99353 23.9134L13.8385 36.7581L18.6646 41.5838C19.3266 42.2465 20.1311 42.5773 21.0774 42.5773C22.0233 42.5773 22.8278 42.2456 23.4903 41.5838L28.3162 36.7581L54.0065 11.068C54.6683 10.4055 55 9.60118 55 8.65475C55.0005 7.70882 54.6683 6.90433 54.0065 6.24189Z" fill="#9BD8A1"/>
</svg>
