<svg width="60" height="52" viewBox="0 0 60 52" fill="none" xmlns="http://www.w3.org/2000/svg">
<path d="M50.976 16.694C50.448 7.694 43.029 0.5 34.084 0.5C28.654 0.5 23.396 3.163 20.139 7.508C20.064 7.469 19.985 7.442 19.909 7.406C19.711 7.31 19.51 7.219 19.305 7.137C19.191 7.092 19.077 7.051 18.962 7.011C18.759 6.94 18.553 6.877 18.343 6.82C18.228 6.789 18.114 6.757 17.998 6.731C17.773 6.68 17.543 6.641 17.311 6.606C17.21 6.591 17.111 6.571 17.009 6.56C16.677 6.523 16.341 6.5 16 6.5C11.037 6.5 7 10.537 7 15.5C7 15.629 7.008 15.755 7.017 15.881C2.857 18.148 0 22.899 0 27.654C0 34.737 5.762 40.5 12.845 40.5H18C18.553 40.5 19 40.053 19 39.5C19 38.947 18.553 38.5 18 38.5H12.845C6.865 38.5 2 33.635 2 27.654C2 23.5 4.705 19.188 8.433 17.401L9 17.13V16.5C9 16.38 9.008 16.258 9.015 16.135L9.026 15.95L9.013 15.756C9.007 15.671 9 15.586 9 15.5C9 11.641 12.141 8.5 16 8.5C16.309 8.5 16.614 8.527 16.917 8.567C16.995 8.577 17.073 8.59 17.15 8.603C17.417 8.647 17.68 8.705 17.939 8.78C17.974 8.79 18.01 8.797 18.045 8.807C18.33 8.894 18.608 9.004 18.88 9.128C18.951 9.16 19.02 9.195 19.09 9.229C19.33 9.348 19.565 9.478 19.792 9.625C21.719 10.873 23 13.038 23 15.5C23 16.053 23.447 16.5 24 16.5C24.553 16.5 25 16.053 25 15.5C25 12.746 23.754 10.281 21.8 8.629C24.667 4.879 29.388 2.5 34.084 2.5C41.829 2.5 48.262 8.635 48.933 16.388C47.912 16.316 46.381 16.279 44.85 16.512C44.304 16.595 43.929 17.105 44.012 17.651C44.087 18.146 44.513 18.501 44.999 18.501C45.049 18.501 45.1 18.497 45.15 18.489C47.377 18.152 49.698 18.468 49.834 18.487C54.49 19.372 58 23.661 58 28.472C58 34.001 53.501 38.5 47.972 38.5H44C43.447 38.5 43 38.947 43 39.5C43 40.053 43.447 40.5 44 40.5H47.972C54.604 40.5 60 35.104 60 28.472C60 22.983 56.173 18.06 50.976 16.694Z" fill="white"/>
<path d="M38.293 41.793L32 48.086V27.5C32 26.947 31.553 26.5 31 26.5C30.447 26.5 30 26.947 30 27.5V48.086L23.707 41.793C23.316 41.402 22.684 41.402 22.293 41.793C21.902 42.184 21.902 42.816 22.293 43.207L30.292 51.206C30.384 51.299 30.495 51.372 30.618 51.423C30.74 51.474 30.87 51.5 31 51.5C31.13 51.5 31.26 51.474 31.382 51.423C31.505 51.372 31.616 51.299 31.708 51.206L39.707 43.207C40.098 42.816 40.098 42.184 39.707 41.793C39.316 41.402 38.684 41.402 38.293 41.793Z" fill="white"/>
</svg>
