<svg width="60" height="52" viewBox="0 0 60 52" fill="none" xmlns="http://www.w3.org/2000/svg">
<path d="M50.975 16.694C50.448 7.694 43.029 0.5 34.084 0.5C28.654 0.5 23.396 3.163 20.138 7.508C20.064 7.469 19.985 7.443 19.91 7.406C19.712 7.31 19.511 7.218 19.305 7.137C19.19 7.092 19.075 7.051 18.959 7.01C18.757 6.939 18.553 6.877 18.344 6.82C18.228 6.789 18.113 6.757 17.995 6.73C17.771 6.679 17.543 6.64 17.312 6.606C17.21 6.591 17.11 6.571 17.007 6.559C16.677 6.523 16.341 6.5 16 6.5C11.038 6.5 7 10.537 7 15.5C7 15.629 7.007 15.755 7.016 15.881C2.857 18.148 0 22.899 0 27.654C0 34.737 5.762 40.5 12.845 40.5H18C18.552 40.5 19 40.053 19 39.5C19 38.947 18.552 38.5 18 38.5H12.845C6.865 38.5 2 33.635 2 27.654C2 23.5 4.705 19.188 8.432 17.401L9 17.13V16.5C9 16.377 9.008 16.251 9.015 16.125L9.024 15.95L9.012 15.762C9.007 15.675 9 15.588 9 15.5C9 11.641 12.14 8.5 16 8.5C16.309 8.5 16.614 8.527 16.917 8.567C16.995 8.577 17.072 8.59 17.149 8.603C17.417 8.647 17.681 8.705 17.941 8.78C17.975 8.79 18.01 8.796 18.043 8.806C18.329 8.893 18.608 9.004 18.881 9.128C18.95 9.159 19.018 9.193 19.086 9.227C19.328 9.346 19.565 9.478 19.793 9.626C21.72 10.875 23 13.039 23 15.5C23 16.053 23.448 16.5 24 16.5C24.552 16.5 25 16.053 25 15.5C25 12.746 23.754 10.281 21.8 8.629C24.666 4.879 29.388 2.5 34.084 2.5C41.828 2.5 48.262 8.635 48.932 16.387C47.91 16.315 46.379 16.278 44.849 16.512C44.303 16.595 43.928 17.105 44.011 17.651C44.086 18.146 44.512 18.501 44.998 18.501C45.048 18.501 45.099 18.497 45.15 18.489C47.374 18.153 49.693 18.468 49.834 18.487C54.49 19.372 58 23.661 58 28.472C58 34.001 53.501 38.5 47.972 38.5H44C43.448 38.5 43 38.947 43 39.5C43 40.053 43.448 40.5 44 40.5H47.972C54.604 40.5 60 35.104 60 28.472C60 22.983 56.173 18.06 50.975 16.694Z" fill="white"/>
<path d="M31.708 26.794C31.616 26.701 31.505 26.628 31.382 26.577C31.138 26.476 30.862 26.476 30.618 26.577C30.495 26.628 30.385 26.701 30.292 26.794L22.293 34.793C21.902 35.184 21.902 35.816 22.293 36.207C22.488 36.402 22.744 36.5 23 36.5C23.256 36.5 23.512 36.402 23.707 36.207L30 29.914V50.5C30 51.053 30.448 51.5 31 51.5C31.552 51.5 32 51.053 32 50.5V29.914L38.293 36.207C38.488 36.402 38.744 36.5 39 36.5C39.256 36.5 39.512 36.402 39.707 36.207C40.098 35.816 40.098 35.184 39.707 34.793L31.708 26.794Z" fill="white"/>
</svg>
